<svg data-v-85862c6f="" width="50" height="58" viewBox="0 0 50 58" fill="none" xmlns="http://www.w3.org/2000/svg" class="tv-icon"><g clip-path="url(#clip0_5121_279027)"><path d="M38.1783 59.2421C39.0604 58.2498 39.6183 57.4039 39.9474 56.8345L42.4835 58.5032L45.3289 61.031L41.7215 65.091L38.8859 62.5698L36.3828 60.9306C36.814 60.618 37.4196 60.0963 38.1799 59.2421H38.1783Z" fill="white" stroke="black" stroke-width="0.822856" stroke-linecap="round" stroke-linejoin="round"></path><path d="M47.4987 58.2931C47.4987 58.2931 48.0681 58.2273 48.4565 58.5729C48.8449 58.9185 49.0078 59.0518 49.2991 59.3217C50.1335 60.0984 49.0374 62.4057 47.5086 64.1255C45.9287 65.9029 41.4688 65.9062 41.4688 65.9062C41.4688 65.9062 39.9844 64.9385 39.9844 64.4727L47.4987 58.2931Z" fill="#2C2F39" stroke="black" stroke-width="0.822856" stroke-linecap="round" stroke-linejoin="round"></path><path d="M42.7535 58.3111C42.268 58.4526 40.8576 60.7368 40.9778 61.2964C41.0897 61.8164 41.9603 62.3891 41.9603 62.3891C41.9603 62.3891 40.0628 63.2515 38.8861 62.5702C38.8861 62.5702 38.3562 63.1215 40.3985 64.8314C40.3985 64.8314 44.0552 64.3969 45.4409 63.7995C46.8266 63.2021 48.0708 60.8405 48.214 59.7461C48.3555 58.6517 47.5524 57.9375 46.1832 58.1597C44.8139 58.3818 44.3021 58.3966 43.8693 58.3736C43.5369 58.3555 43.1501 58.1942 42.7551 58.3111H42.7535Z" fill="#E6E6E6" stroke="black" stroke-width="0.822856" stroke-linecap="round" stroke-linejoin="round"></path><path d="M40.7947 56.0875L33.7938 50.6978L26.742 55.0753H19.4844L19.7263 64.5843C19.7263 64.5843 21.0807 65.078 23.5361 65.078C25.9915 65.078 26.8275 64.5843 26.8275 64.5843L28.7728 58.1133L36.6146 62.3181C36.6146 62.3181 40.9395 59.7344 40.793 56.0858L40.7947 56.0875Z" fill="black" stroke="black" stroke-width="0.658285" stroke-linecap="round" stroke-linejoin="round"></path><path d="M28.7734 58.1149L30.6117 56.6025" stroke="black" stroke-width="0.658285" stroke-linecap="round" stroke-linejoin="round"></path><path d="M35.8809 35.7646L39.9951 31.2521C40.9431 30.523 43.1878 29.6837 44.483 30.3041C45.6202 30.8489 48.4228 33.5873 45.6498 34.9385" fill="white"></path><path d="M35.8809 35.7646L39.9951 31.2521C40.9431 30.523 43.1878 29.6837 44.483 30.3041C45.6202 30.8489 48.4228 33.5873 45.6498 34.9385" stroke="black" stroke-width="0.822856" stroke-linecap="round" stroke-linejoin="round"></path><path d="M33.2776 43.4517L37.201 41.3337C37.7852 40.0204 37.9926 35.6429 35.1455 34.1831L30.5902 35.763L21.1816 38.0176L28.8309 41.4539L33.2776 43.4517Z" fill="white" stroke="black" stroke-width="0.822856" stroke-linecap="round" stroke-linejoin="round"></path><path d="M31.744 54.3481C33.2301 53.6305 34.7425 52.4818 35.6213 51.1883C35.6213 51.1883 34.6948 45.6686 33.4128 41.8686L29.4976 39.5811L27.7959 38.6167L19.2382 37.9288L11.0936 32.9653L7.49609 38.773L17.0544 45.1568C17.1103 47.6813 17.7044 52.3765 18.3594 56.0612C18.3594 56.0612 24.6971 56.894 30.1065 55.0212" fill="white"></path><path d="M22.1191 37.9766C22.1191 37.9766 22.8877 39.0463 24.1154 39.9086C25.7841 41.0804 27.9038 40.3299 28.7859 38.1609C28.9637 37.7231 29.1085 37.2327 29.1973 36.688L22.1208 37.9766H22.1191Z" fill="white" stroke="black" stroke-width="0.822856" stroke-linecap="round" stroke-linejoin="round"></path><path d="M11.9922 4.42871L15.7543 9.34939" stroke="black" stroke-width="4.27885" stroke-linecap="round" stroke-linejoin="round"></path><path d="M29.0006 2.13965L26.6719 7.88153" stroke="black" stroke-width="4.27885" stroke-linecap="round" stroke-linejoin="round"></path><path d="M36.9789 7.59165C33.7122 5.65464 26.29 6.69967 21.0517 7.40568C15.8134 8.11004 8.3781 9.06456 5.74002 11.7948C3.10195 14.525 3.56933 19.0557 4.34775 24.8371C5.12617 30.6184 6.24526 35.911 9.8724 37.4597C13.4996 39.0083 19.4159 38.3023 25.1068 37.5354C30.7976 36.7701 36.6909 35.888 39.7783 33.4359C42.8673 30.9838 42.548 25.5826 41.7696 19.8012C40.9912 14.0198 40.2457 9.527 36.9789 7.59165Z" fill="white" stroke="black" stroke-width="0.822856" stroke-linecap="round" stroke-linejoin="round"></path><path d="M12.1445 20.874L17.814 17.9775" stroke="black" stroke-width="2.63314" stroke-linecap="round" stroke-linejoin="round"></path><path d="M32.6207 18.1194L26.3867 16.8242" stroke="black" stroke-width="2.63314" stroke-linecap="round" stroke-linejoin="round"></path><path d="M27.3235 21.9834C27.3235 21.9834 27.2857 24.2183 25.5708 24.4487C23.856 24.6791 22.8225 22.7618 22.8225 22.7618C22.8225 22.7618 22.3321 24.8848 20.6172 25.1152C18.9024 25.3456 18.2754 23.1996 18.2754 23.1996" stroke="black" stroke-width="1.31657" stroke-linecap="round" stroke-linejoin="round"></path><path d="M34.5979 9.56352C33.1678 8.66496 24.8586 9.70834 21.1344 10.2103C17.4101 10.7122 9.11902 11.9004 7.97854 13.1446C6.83642 14.3887 7.66421 20.5305 8.06741 23.5307C8.47061 26.5308 9.0713 30.9874 10.2957 31.9863C11.5201 32.9853 18.6148 32.4833 24.0341 31.7543C29.4518 31.0252 36.4263 29.6346 37.3446 28.3477C38.2629 27.0607 37.6622 22.6041 37.259 19.604C36.8558 16.6039 36.0297 10.4621 34.5996 9.56352H34.5979Z" stroke="black" stroke-width="1.31657" stroke-linecap="round" stroke-linejoin="round"></path><path d="M7.26104 30.7041L2.5 35.7005C3.02169 37.0138 4.48144 37.858 5.97574 37.7593L14.3162 43.33" fill="white"></path><path d="M7.26104 30.7041L2.5 35.7005C3.02169 37.0138 4.48144 37.858 5.97574 37.7593L14.3162 43.33" stroke="black" stroke-width="0.822856" stroke-linecap="round" stroke-linejoin="round"></path><path d="M3.00792 33.0132C4.02991 33.558 4.57135 34.5372 4.21917 35.1987C3.86534 35.8603 2.75119 35.9558 1.73085 35.411C0.708863 34.8663 0.167424 33.8871 0.519606 33.2255C0.873434 32.5639 1.98758 32.4685 3.00792 33.0132Z" fill="white" stroke="black" stroke-width="0.822856" stroke-linecap="round" stroke-linejoin="round"></path><path d="M4.24084 30.6779C5.22827 31.4102 5.62653 32.5458 5.13117 33.2139C4.63581 33.8821 3.43279 33.8311 2.44701 33.0987C1.45959 32.3664 1.06132 31.2309 1.55668 30.5627C2.05204 29.8945 3.25341 29.9456 4.24084 30.6779Z" fill="white" stroke="black" stroke-width="0.822856" stroke-linecap="round" stroke-linejoin="round"></path><path d="M5.88861 28.7754C6.83654 29.5588 7.17391 30.7124 6.64563 31.3542C6.11571 31.9961 4.91764 31.8809 3.96971 31.0975C3.02178 30.3141 2.68276 29.1605 3.21433 28.5187C3.74424 27.8768 4.94232 27.992 5.89025 28.7754H5.88861Z" fill="white" stroke="black" stroke-width="0.822856" stroke-linecap="round" stroke-linejoin="round"></path><path d="M6.04883 32.6855C6.05706 33.2978 6.24138 34.272 7.26172 34.6686" stroke="black" stroke-width="0.822856" stroke-linecap="round" stroke-linejoin="round"></path><path d="M14.3157 43.0046L17.5627 38.3308L9.66493 31.7825C9.63366 30.9234 8.57876 28.6227 6.63847 29.0342C4.69818 29.4472 3.69923 31.9964 4.80021 32.7024C5.89955 33.4085 7.19801 31.6788 7.19801 31.6788" fill="white"></path><path d="M14.3157 43.0046L17.5627 38.3308L9.66493 31.7825C9.63366 30.9234 8.57876 28.6227 6.63847 29.0342C4.69818 29.4472 3.69923 31.9964 4.80021 32.7024C5.89955 33.4085 7.19801 31.6788 7.19801 31.6788" stroke="black" stroke-width="0.822856" stroke-linecap="round" stroke-linejoin="round"></path><path d="M12.9824 42.68L15.3374 36.4839" stroke="black" stroke-width="0.658285" stroke-linecap="round" stroke-linejoin="round"></path><path d="M18.9723 38.2595C18.0277 37.5437 15.3353 35.7646 15.3353 35.7646C15.197 37.468 13.4263 40.7001 11.5781 42.2274C11.5781 42.2274 12.1541 42.9893 16.9201 45.3328" fill="white"></path><path d="M18.9723 38.2595C18.0277 37.5437 15.3353 35.7646 15.3353 35.7646C15.197 37.468 13.4263 40.7001 11.5781 42.2274C11.5781 42.2274 12.1541 42.9893 16.9201 45.3328" stroke="black" stroke-width="0.822856" stroke-linecap="round" stroke-linejoin="round"></path><path d="M17.0293 43.3279C17.0293 43.3279 17.4095 50.7336 18.359 56.0591C18.359 56.0591 24.6967 56.8919 30.1061 55.019L31.0639 54.6915L31.742 54.3476C33.228 53.6301 34.7404 52.4814 35.6193 51.1878C35.6193 51.1878 34.6927 45.6681 33.4107 41.8682" stroke="black" stroke-width="0.822856" stroke-linecap="round" stroke-linejoin="round"></path><path d="M36.4453 35.4061C36.4453 35.4061 38.091 37.1801 37.4459 40.46L41.3084 37.1982C41.8005 37.8187 43.8806 38.0013 44.7743 36.3227C44.7743 36.3227 46.1649 36.5844 46.4891 35.6299C46.7985 34.7181 45.8143 34.0615 44.8467 33.915" fill="white"></path><path d="M36.4453 35.4061C36.4453 35.4061 38.091 37.1801 37.4459 40.46L41.3084 37.1982C41.8005 37.8187 43.8806 38.0013 44.7743 36.3227C44.7743 36.3227 46.1649 36.5844 46.4891 35.6299C46.7985 34.7181 45.8143 34.0615 44.8467 33.915" stroke="black" stroke-width="0.822856" stroke-linecap="round" stroke-linejoin="round"></path></g><defs><clipPath id="clip0_5121_279027"><rect width="50" height="58" fill="white"></rect></clipPath></defs></svg>